<?xml version="1.0" encoding="utf-8"?>
<!-- Created with Inkscape (http://www.inkscape.org/) -->
<svg width="512" height="512" version="1.2" viewBox="0 0 512 512" xmlns:cc="http://creativecommons.org/ns#" xmlns:dc="http://purl.org/dc/elements/1.1/" xmlns:rdf="http://www.w3.org/1999/02/22-rdf-syntax-ns#" baseProfile="tiny-ps" xmlns="http://www.w3.org/2000/svg">
  <title>MR</title>
  <g stroke-width=".82444">
    <path d="m7.8452 256v-240.73h496.31v481.47h-496.31z" fill="#fcfcfb" />
    <path d="m27.704 488.7-1.7592-1.4428 0.22508-97.968c0.2203-95.891 0.25902-97.993 1.8254-99.138 1.2101-0.88476 4.5531-1.1701 13.708-1.1701 10.257 0 12.281 0.2084 13.239 1.3634 0.93985 1.1325 1.1625 15.469 1.3148 84.647 0.10084 45.806 0.4861 83.586 0.85613 83.956 0.37003 0.37003 38.252 0.76981 84.182 0.88841 81.583 0.21066 83.536 0.25254 84.679 1.816 0.8895 1.2166 1.17 4.6195 1.17 14.192 0 11.606-0.12492 12.659-1.5947 13.446-1.0734 0.57445-33.383 0.85343-98.841 0.85343-91.396 0-97.352-0.0868-99.005-1.4428zm261.89 0.55229c-1.2783-0.74454-1.4428-2.334-1.4428-13.944 0-12.606 0.0695-13.152 1.8323-14.387 1.6288-1.1408 10.998-1.2834 84.34-1.2834 63.073 0 82.74-0.23302 83.497-0.98932 0.75631-0.7563 0.98932-20.444 0.98932-83.589 0-80.063 0.0483-82.659 1.5741-84.546 1.4978-1.852 2.1362-1.9593 13.167-2.2143 11.465-0.26505 11.615-0.24509 13.678 1.8175l2.0855 2.0855v98.116c0 96.161-0.0317 98.133-1.5947 98.97-2.1973 1.176-196.1 1.1397-198.12-0.037zm-108.96-150.38c-5.3807-1.9172-4.0639 0.11725-33.626-51.953-5.6636-9.9757-11.525-20.364-13.025-23.084-2.9684-5.384-4.8117-7.8321-5.8969-7.8321-0.38316 0-0.69666 17.27-0.69666 38.377 0 40.423-0.15065 42.174-3.7469 43.554-0.73402 0.28167-6.4982 0.51212-12.809 0.51212-10.405 0-11.63-0.15485-13.137-1.6619-1.6447-1.6447-1.6597-2.4214-1.4428-74.878l0.21918-73.216 2.0535-2.9965c2.9595-4.3186 9.6877-7.5641 14.189-6.8444 6.2469 0.99892 8.9997 3.2705 14.39 11.874 2.7501 4.3897 6.2212 10.207 7.7137 12.928 1.4925 2.7206 5.192 9.2131 8.2211 14.428 3.0292 5.2146 7.6785 13.376 10.332 18.138 2.6534 4.7611 5.4547 9.584 6.2253 10.718s2.5166 4.1016 3.8802 6.5955c8.9657 16.398 21.701 37.552 22.735 37.766 1.3477 0.27822 3.1189-2.4558 13.785-21.277 10.184-17.971 12.214-21.518 20.53-35.863 4.206-7.255 11.912-20.611 17.125-29.68 12.279-21.363 16.342-27.358 20.326-29.995l3.2599-2.1577 61.069-0.2285c39.739-0.14868 62.458 0.0687 65.045 0.62244 10.668 2.2831 20.923 10.526 25.529 20.518 2.4103 5.2291 2.5425 6.0885 2.997 19.486 0.61983 18.27-0.18571 29.882-2.5153 36.259-4.2664 11.679-11.35 20.538-21.728 27.177-5.8079 3.7152-10.462 5.683-17.541 7.4169-3.2915 0.80615-6.2235 1.8524-6.5155 2.325-0.61329 0.99232 4.0394 5.4642 19.504 18.746 6.0716 5.2146 12.929 11.15 15.239 13.191 2.3099 2.0405 7.2594 6.3069 10.999 9.481 6.5741 5.5802 8.6657 8.7125 6.9579 10.42-1.0001 1.0001-34.802 1.9349-41.175 1.1387-4.8947-0.61155-4.453-0.2695-36.968-28.626-4.5243-3.9457-12.833-11.087-18.464-15.87l-10.238-8.6964h-9.3421c-12.816 0-12.592 0.25567-12.791-14.634-0.19748-14.823-0.17149-15.09 1.6463-16.908 1.4645-1.4645 3.1601-1.5514 29.091-1.4912 34.729 0.0806 42.391-0.53711 49.182-3.9654 9.6323-4.8624 11.85-10.027 12.022-27.997 0.1112-11.625-7e-3 -12.738-1.473-13.809-1.3305-0.97285-9.5275-1.1656-49.578-1.1656-42.994 0-48.036 0.1356-48.484 1.3041-0.27524 0.71724-0.50043 30.166-0.50043 65.442 0 58.691-0.11594 64.234-1.3652 65.269-1.0462 0.86704-4.8517 1.1315-16.283 1.1315-16.168 0-18.043-0.41734-19.537-4.3476-0.50609-1.3311-0.79352-13.001-0.73487-29.836 0.16174-46.432 0.11103-48.848-1.0174-48.472-1.0749 0.35829-1.5628 1.1714-14.225 23.708-9.4335 16.79-13.648 24.214-17.317 30.504-1.4547 2.4939-4.213 7.3168-6.1296 10.718-8.361 14.836-9.9332 16.696-15.239 18.032-4.7093 1.1858-6.7298 1.1306-10.726-0.29322zm-151.94-110.51c-1.3531-0.56892-2.7012-1.6625-2.9957-2.4302-0.29458-0.76766-0.5356-45.501-0.5356-99.407 0-96.057 0.03179-98.028 1.5947-98.865 2.4496-1.311 198.91-1.1776 200.23 0.13588 0.68561 0.68561 0.98932 4.9702 0.98932 13.956 0 10.689-0.2276 13.195-1.2955 14.263-0.71254 0.71255-1.3618 1.3821-1.4428 1.4879-0.081 0.10582-37.803 0.38407-83.827 0.61833l-83.68 0.42593-0.41222 83.268c-0.22672 45.797-0.72861 83.913-1.1153 84.702-0.3867 0.7886-2.0562 1.7711-3.71 2.1834-4.4619 1.1123-20.902 0.87852-23.796-0.33832zm431.4-1.4012c-1.1408-1.6287-1.2834-10.975-1.2834-84.092 0-81.161-0.022-82.282-1.6489-83.909-1.627-1.627-2.7481-1.6489-84.404-1.6489-75.901 0-82.848-0.11267-83.886-1.3605-0.82099-0.98717-1.2035-4.8016-1.394-13.9-0.22508-10.754-0.0699-12.732 1.0894-13.892 1.2379-1.2379 9.6867-1.3519 100.17-1.3519 89.05 0 98.943 0.129 100.12 1.3054 1.1788 1.1788 1.2845 10.824 1.0894 99.417l-0.21602 98.112-1.9463 1.5759c-1.7208 1.3933-3.3634 1.5759-14.175 1.5759-11.702 0-12.284-0.0789-13.512-1.8323z" fill="#f0dda7" />
    <path d="m27.704 488.7-1.7592-1.4428 0.22508-97.968c0.2203-95.891 0.25902-97.993 1.8254-99.138 1.2101-0.88476 4.5531-1.1701 13.708-1.1701 10.257 0 12.281 0.2084 13.239 1.3634 0.93985 1.1325 1.1625 15.469 1.3148 84.647 0.10084 45.806 0.4861 83.586 0.85613 83.956 0.37003 0.37003 38.252 0.76981 84.182 0.88841 81.583 0.21066 83.536 0.25254 84.679 1.816 0.8895 1.2166 1.17 4.6195 1.17 14.192 0 11.606-0.12492 12.659-1.5947 13.446-1.0734 0.57445-33.383 0.85343-98.841 0.85343-91.396 0-97.352-0.0868-99.005-1.4428zm261.89 0.55229c-1.2783-0.74454-1.4428-2.334-1.4428-13.944 0-12.606 0.0695-13.152 1.8323-14.387 1.6288-1.1408 10.998-1.2834 84.34-1.2834 63.073 0 82.74-0.23302 83.497-0.98932 0.75631-0.7563 0.98932-20.444 0.98932-83.589 0-80.063 0.0483-82.659 1.5741-84.546 1.4978-1.852 2.1362-1.9593 13.167-2.2143 11.465-0.26505 11.615-0.24509 13.678 1.8175l2.0855 2.0855v98.116c0 96.161-0.0317 98.133-1.5947 98.97-2.1973 1.176-196.1 1.1397-198.12-0.037zm-109.5-153.67c-2.5977-1.4126-4.5122-4.2221-12.934-18.98-3.6226-6.3482-13.355-23.414-21.629-37.924-8.2732-14.51-15.988-27.395-17.144-28.634-4.2585-4.5619-4.296-4.2061-4.296 40.743 0 26.806-0.29781 41.731-0.85343 42.77-0.77831 1.4543-1.8218 1.5947-11.853 1.5947-8.3166 0-11.229-0.27597-11.939-1.1313-0.69004-0.83145-0.88068-20.044-0.71928-72.49 0.21731-70.614 0.23735-71.383 1.9194-73.635 3.1777-4.2557 5.8897-5.6796 10.727-5.6325 7.4019 0.0721 8.6332 1.4405 21.374 23.752 12.387 21.693 46.184 80.574 48.806 85.03 2.0278 3.4461 2.819 4.1222 4.8241 4.1222 2.2417 0 2.9792-0.99684 11.284-15.252 4.8868-8.3886 9.3872-16.18 10.001-17.313 1.1579-2.139 12.358-21.687 22.674-39.573 3.269-5.668 6.3351-11.006 6.8134-11.861 0.47838-0.85564 1.5315-2.7106 2.3403-4.1222 15.445-26.956 17.235-29.393 22.705-30.912 2.2636-0.62841 21.794-0.91427 62.68-0.91743 66.269-5e-3 65.44-0.0679 73.724 5.5806 5.5192 3.763 10.009 9.5607 12.544 16.199 1.7538 4.592 1.9342 6.5139 2.1649 23.056 0.27765 19.913-0.34181 23.712-5.6717 34.784-6.2709 13.027-22.08 24.272-37.609 26.753-3.0521 0.48757-6.0273 1.2833-6.6116 1.7682-1.738 1.4424-1.2178 3.7327 1.3113 5.7728 1.3055 1.0531 6.7777 5.8117 12.16 10.575 5.3827 4.763 11.827 10.324 14.321 12.358 10.077 8.219 24.733 21.65 24.733 22.666 0 1.508-4.1918 1.73-23.562 1.2476l-16.554-0.41222-5.2888-4.5344c-2.9088-2.4939-12.501-10.841-21.316-18.55-26.036-22.768-32.926-28.335-36.188-29.241-1.667-0.463-6.2641-0.8439-10.216-0.84642-6.2569-4e-3 -7.295-0.21054-8.0382-1.5993-1.0673-1.9943-1.1073-22.284-0.0472-23.963 0.66686-1.056 5.874-1.2997 35.644-1.6684 30.719-0.38045 35.304-0.60494 38.573-1.8883 8.0548-3.1623 13.748-8.8722 15.771-15.818 0.5947-2.042 0.90395-8.6348 0.81213-17.313-0.13533-12.789-0.29216-14.16-1.7925-15.664-1.6021-1.6066-2.8974-1.6546-50.561-1.8738-45.866-0.21094-49.03-0.13347-50.729 1.2424l-1.8122 1.4674 0.0525 62.651c0.0289 34.458-0.25378 63.764-0.62815 65.125l-0.68067 2.4733-13.606 0.22539c-12.978 0.21499-13.679 0.14454-15.194-1.5287-1.5117-1.6698-1.6078-3.7608-2.0002-43.508-0.40445-40.967-0.4431-41.754-2.0494-41.754-1.5243 0-5.0201 4.4084-8.1721 10.305-0.60591 1.1336-2.573 4.6581-4.3713 7.8321-1.7983 3.1741-4.3087 7.626-5.5786 9.8932-1.2699 2.2672-2.5911 4.4932-2.9359 4.9466-0.34485 0.45344-2.0104 3.4214-3.7011 6.5955-1.6908 3.1741-3.9841 7.255-5.0964 9.0688-1.1122 1.8138-5.8482 10.086-10.524 18.384-9.0351 16.031-10.285 17.81-13.795 19.625-2.8374 1.4673-9.508 1.4311-12.262-0.0665zm-150.25-110.29c-1.3063-0.96114-1.3863-7.6095-1.1881-98.726l0.21254-97.696h196.22l0.22825 11.667c0.19169 9.7983 0.0172 11.878-1.0894 12.985-1.1898 1.1898-9.3405 1.3177-83.957 1.3177-70.066 0-82.883 0.17802-84.24 1.1701-1.5635 1.1431-1.6053 3.0999-1.818 84.942l-0.21767 83.771-2.1032 0.79963c-3.153 1.1988-20.345 1.0187-22.043-0.23091zm431.99-0.34352c-0.30229-0.30228-0.55509-37.68-0.56177-83.062-0.01-64.863-0.23517-82.953-1.0548-84.573l-1.0426-2.0611-83.323-0.41222c-69.607-0.34436-83.551-0.60147-84.708-1.5619-1.1986-0.99493-1.3543-2.7149-1.157-12.779l0.22803-11.629h196.22l0.22614 96.459c0.12436 53.052 0.0246 97.294-0.22182 98.314-0.43864 1.8164-0.69321 1.855-12.249 1.855-6.4906 0-12.049-0.24733-12.351-0.54963z" fill="#9edcde" />
    <path d="m29.662 487.46c-0.21655-0.56867-0.29824-44.626-0.18154-97.905l0.21218-96.871 23.496-0.45749v82.493c0 70.171 0.17844 82.92 1.1946 85.352l1.1946 2.859h83.152c65.516 0 83.453 0.22004 84.571 1.0374 1.2455 0.91072 1.3906 2.4463 1.1881 12.573l-0.23066 11.535-97.102 0.2095c-77.247 0.16666-97.182-2e-3 -97.495-0.82443zm261.51 0.47752c-0.3023-0.30229-0.54963-5.8275-0.54963-12.278 0-9.9345 0.19949-11.805 1.3041-12.229 0.71724-0.27524 38.501-0.50043 83.965-0.50043 79.033 0 82.72-0.0661 84.025-1.5077 1.2506-1.3819 1.3644-8.4279 1.3644-84.446 0-74.299 0.13494-83.073 1.2955-84.234 1.9036-1.9036 21.073-1.8933 22.979 0.0123 1.1797 1.1797 1.3041 10.729 1.2694 97.436-0.0272 68.156-0.30009 96.444-0.93771 97.212-0.73355 0.88392-18.709 1.0836-97.532 1.0836-53.148 0-96.88-0.24733-97.182-0.54962zm-111.08-152.37c-2.5977-1.4126-4.5122-4.2221-12.934-18.98-3.6226-6.3482-13.355-23.414-21.629-37.924-8.2732-14.51-15.988-27.395-17.144-28.634-4.2585-4.5619-4.296-4.2061-4.296 40.743 0 26.806-0.29781 41.731-0.85343 42.77-0.77831 1.4543-1.8218 1.5947-11.853 1.5947-8.3166 0-11.229-0.27597-11.939-1.1313-0.69004-0.83145-0.88068-20.044-0.71928-72.49 0.21731-70.614 0.23735-71.383 1.9194-73.635 3.1777-4.2557 5.8897-5.6796 10.727-5.6325 7.4019 0.0721 8.6332 1.4405 21.374 23.752 12.387 21.693 46.184 80.574 48.806 85.03 2.0278 3.4461 2.819 4.1222 4.8241 4.1222 2.2417 0 2.9792-0.99684 11.284-15.252 4.8868-8.3886 9.3872-16.18 10.001-17.313 1.1579-2.139 12.358-21.687 22.674-39.573 3.269-5.668 6.3351-11.006 6.8134-11.861 0.47838-0.85564 1.5315-2.7106 2.3403-4.1222 15.445-26.956 17.235-29.393 22.705-30.912 2.2636-0.62841 21.794-0.91427 62.68-0.91743 66.269-5e-3 65.44-0.0679 73.724 5.5806 5.5192 3.763 10.009 9.5607 12.544 16.199 1.7538 4.592 1.9342 6.5139 2.1649 23.056 0.27765 19.913-0.34181 23.712-5.6717 34.784-6.2709 13.027-22.08 24.272-37.609 26.753-3.0521 0.48757-6.0273 1.2833-6.6116 1.7682-1.738 1.4424-1.2178 3.7327 1.3113 5.7728 1.3055 1.0531 6.7777 5.8117 12.16 10.575 5.3827 4.763 11.827 10.324 14.321 12.358 10.077 8.219 24.733 21.65 24.733 22.666 0 1.508-4.1918 1.73-23.562 1.2476l-16.554-0.41222-5.2888-4.5344c-2.9088-2.4939-12.501-10.841-21.316-18.55-26.036-22.768-32.926-28.335-36.188-29.241-1.667-0.463-6.2641-0.8439-10.216-0.84642-6.2569-4e-3 -7.295-0.21054-8.0382-1.5993-1.0673-1.9943-1.1073-22.284-0.0472-23.963 0.66686-1.056 5.874-1.2997 35.644-1.6684 30.719-0.38045 35.304-0.60494 38.573-1.8883 8.0548-3.1623 13.748-8.8722 15.771-15.818 0.5947-2.042 0.90395-8.6348 0.81213-17.313-0.13533-12.789-0.29216-14.16-1.7925-15.664-1.6021-1.6066-2.8974-1.6546-50.561-1.8738-45.866-0.21094-49.03-0.13347-50.729 1.2424l-1.8122 1.4674 0.0525 62.651c0.0289 34.458-0.25378 63.764-0.62815 65.125l-0.68067 2.4733-13.606 0.22539c-12.978 0.21499-13.679 0.14454-15.194-1.5287-1.5117-1.6698-1.6078-3.7608-2.0002-43.508-0.40445-40.967-0.4431-41.754-2.0494-41.754-1.5243 0-5.0201 4.4084-8.1721 10.305-0.60591 1.1336-2.573 4.6581-4.3713 7.8321-1.7983 3.1741-4.3087 7.626-5.5786 9.8932-1.2699 2.2672-2.5911 4.4932-2.9359 4.9466-0.34485 0.45344-2.0104 3.4214-3.7011 6.5955-1.6908 3.1741-3.9841 7.255-5.0964 9.0688-1.1122 1.8138-5.8482 10.086-10.524 18.384-9.0351 16.031-10.285 17.81-13.795 19.625-2.8374 1.4673-9.508 1.4311-12.262-0.0665zm-150.25-110.29c-1.3063-0.96114-1.3863-7.6095-1.1881-98.726l0.21254-97.696h196.22l0.22825 11.667c0.19169 9.7983 0.0172 11.878-1.0894 12.985-1.1898 1.1898-9.3405 1.3177-83.957 1.3177-70.066 0-82.883 0.17802-84.24 1.1701-1.5635 1.1431-1.6053 3.0999-1.818 84.942l-0.21767 83.771-2.1032 0.79963c-3.153 1.1988-20.345 1.0187-22.043-0.23091zm431.99-0.34352c-0.30229-0.30228-0.55509-37.68-0.56177-83.062-0.01-64.863-0.23517-82.953-1.0548-84.573l-1.0426-2.0611-83.323-0.41222c-69.607-0.34436-83.551-0.60147-84.708-1.5619-1.1986-0.99493-1.3543-2.7149-1.157-12.779l0.22803-11.629h196.22l0.22614 96.459c0.12436 53.052 0.0246 97.294-0.22182 98.314-0.43864 1.8164-0.69321 1.855-12.249 1.855-6.4906 0-12.049-0.24733-12.351-0.54963z" fill="#46c2e6" />
    <path d="m29.662 487.46c-0.21655-0.56867-0.29824-44.626-0.18154-97.905l0.21218-96.871 23.496-0.45749v82.493c0 70.171 0.17844 82.92 1.1946 85.352l1.1946 2.859h83.152c65.516 0 83.453 0.22004 84.571 1.0374 1.2455 0.91072 1.3906 2.4463 1.1881 12.573l-0.23066 11.535-97.102 0.2095c-77.247 0.16666-97.182-2e-3 -97.495-0.82443zm150.43-151.89c-2.5977-1.4126-4.5122-4.2221-12.934-18.98-3.6226-6.3482-13.355-23.414-21.629-37.924-8.2732-14.51-15.988-27.395-17.144-28.634-4.2585-4.5619-4.296-4.2061-4.296 40.743 0 26.806-0.29781 41.731-0.85343 42.77-0.77831 1.4543-1.8218 1.5947-11.853 1.5947-8.3166 0-11.229-0.27597-11.939-1.1313-0.69004-0.83145-0.88068-20.044-0.71928-72.49 0.21731-70.614 0.23735-71.383 1.9194-73.635 3.1777-4.2557 5.8897-5.6796 10.727-5.6325 7.4019 0.0721 8.6332 1.4405 21.374 23.752 12.387 21.693 46.184 80.574 48.806 85.03 2.0278 3.4461 2.819 4.1222 4.8241 4.1222 2.2417 0 2.9792-0.99684 11.284-15.252 4.8868-8.3886 9.3872-16.18 10.001-17.313 1.1579-2.139 12.358-21.687 22.674-39.573 3.269-5.668 6.3351-11.006 6.8134-11.861 0.47838-0.85564 1.5315-2.7106 2.3403-4.1222 15.445-26.956 17.235-29.393 22.705-30.912 2.2636-0.62841 21.794-0.91427 62.68-0.91743 66.269-5e-3 65.44-0.0679 73.724 5.5806 5.5192 3.763 10.009 9.5607 12.544 16.199 1.7538 4.592 1.9342 6.5139 2.1649 23.056 0.27765 19.913-0.34181 23.712-5.6717 34.784-6.2709 13.027-22.08 24.272-37.609 26.753-3.0521 0.48757-6.0273 1.2833-6.6116 1.7682-1.738 1.4424-1.2178 3.7327 1.3113 5.7728 1.3055 1.0531 6.7777 5.8117 12.16 10.575 5.3827 4.763 11.827 10.324 14.321 12.358 10.077 8.219 24.733 21.65 24.733 22.666 0 1.508-4.1918 1.73-23.562 1.2476l-16.554-0.41222-5.2888-4.5344c-2.9088-2.4939-12.501-10.841-21.316-18.55-26.036-22.768-32.926-28.335-36.188-29.241-1.667-0.463-6.2641-0.8439-10.216-0.84642-6.2569-4e-3 -7.295-0.21054-8.0382-1.5993-1.0673-1.9943-1.1073-22.284-0.0472-23.963 0.66686-1.056 5.874-1.2997 35.644-1.6684 30.719-0.38045 35.304-0.60494 38.573-1.8883 8.0548-3.1623 13.748-8.8722 15.771-15.818 0.5947-2.042 0.90395-8.6348 0.81213-17.313-0.13533-12.789-0.29216-14.16-1.7925-15.664-1.6021-1.6066-2.8974-1.6546-50.561-1.8738-45.866-0.21094-49.03-0.13347-50.729 1.2424l-1.8122 1.4674 0.0525 62.651c0.0289 34.458-0.25378 63.764-0.62815 65.125l-0.68067 2.4733-13.606 0.22539c-12.978 0.21499-13.679 0.14454-15.194-1.5287-1.5117-1.6698-1.6078-3.7608-2.0002-43.508-0.40445-40.967-0.4431-41.754-2.0494-41.754-1.5243 0-5.0201 4.4084-8.1721 10.305-0.60591 1.1336-2.573 4.6581-4.3713 7.8321-1.7983 3.1741-4.3087 7.626-5.5786 9.8932-1.2699 2.2672-2.5911 4.4932-2.9359 4.9466-0.34485 0.45344-2.0104 3.4214-3.7011 6.5955-1.6908 3.1741-3.9841 7.255-5.0964 9.0688-1.1122 1.8138-5.8482 10.086-10.524 18.384-9.0351 16.031-10.285 17.81-13.795 19.625-2.8374 1.4673-9.508 1.4311-12.262-0.0665zm-150.25-110.29c-1.3063-0.96114-1.3863-7.6095-1.1881-98.726l0.21254-97.696h196.22l0.22825 11.667c0.19169 9.7983 0.0172 11.878-1.0894 12.985-1.1898 1.1898-9.3405 1.3177-83.957 1.3177-70.066 0-82.883 0.17802-84.24 1.1701-1.5635 1.1431-1.6053 3.0999-1.818 84.942l-0.21767 83.771-2.1032 0.79963c-3.153 1.1988-20.345 1.0187-22.043-0.23091zm431.99-0.34352c-0.30229-0.30228-0.55509-37.68-0.56177-83.062-0.01-64.863-0.23517-82.953-1.0548-84.573l-1.0426-2.0611-83.323-0.41222c-69.607-0.34436-83.551-0.60147-84.708-1.5619-1.1986-0.99493-1.3543-2.7149-1.157-12.779l0.22803-11.629h196.22l0.22614 96.459c0.12436 53.052 0.0246 97.294-0.22182 98.314-0.43864 1.8164-0.69321 1.855-12.249 1.855-6.4906 0-12.049-0.24733-12.351-0.54963z" fill="#69c6b4" />
    <path d="m180.09 335.58c-2.5977-1.4126-4.5122-4.2221-12.934-18.98-3.6226-6.3482-13.355-23.414-21.629-37.924-8.2732-14.51-15.988-27.395-17.144-28.634-4.2585-4.5619-4.296-4.2061-4.296 40.743 0 26.806-0.29781 41.731-0.85343 42.77-0.77831 1.4543-1.8218 1.5947-11.853 1.5947-8.3166 0-11.229-0.27597-11.939-1.1313-0.69004-0.83145-0.88068-20.044-0.71928-72.49 0.21731-70.614 0.23735-71.383 1.9194-73.635 3.1777-4.2557 5.8897-5.6796 10.727-5.6325 7.4019 0.0721 8.6332 1.4405 21.374 23.752 12.387 21.693 46.184 80.574 48.806 85.03 2.0278 3.4461 2.819 4.1222 4.8241 4.1222 2.2417 0 2.9792-0.99684 11.284-15.252 4.8868-8.3886 9.3872-16.18 10.001-17.313 1.1579-2.139 12.358-21.687 22.674-39.573 3.269-5.668 6.3351-11.006 6.8134-11.861 0.47838-0.85564 1.5315-2.7106 2.3403-4.1222 15.445-26.956 17.235-29.393 22.705-30.912 2.2636-0.62841 21.794-0.91427 62.68-0.91743 66.269-5e-3 65.44-0.0679 73.724 5.5806 5.5192 3.763 10.009 9.5607 12.544 16.199 1.7538 4.592 1.9342 6.5139 2.1649 23.056 0.27765 19.913-0.34181 23.712-5.6717 34.784-6.2709 13.027-22.08 24.272-37.609 26.753-3.0521 0.48757-6.0273 1.2833-6.6116 1.7682-1.738 1.4424-1.2178 3.7327 1.3113 5.7728 1.3055 1.0531 6.7777 5.8117 12.16 10.575 5.3827 4.763 11.827 10.324 14.321 12.358 10.077 8.219 24.733 21.65 24.733 22.666 0 1.508-4.1918 1.73-23.562 1.2476l-16.554-0.41222-5.2888-4.5344c-2.9088-2.4939-12.501-10.841-21.316-18.55-26.036-22.768-32.926-28.335-36.188-29.241-1.667-0.463-6.2641-0.8439-10.216-0.84642-6.2569-4e-3 -7.295-0.21054-8.0382-1.5993-1.0673-1.9943-1.1073-22.284-0.0472-23.963 0.66686-1.056 5.874-1.2997 35.644-1.6684 30.719-0.38045 35.304-0.60494 38.573-1.8883 8.0548-3.1623 13.748-8.8722 15.771-15.818 0.5947-2.042 0.90395-8.6348 0.81213-17.313-0.13533-12.789-0.29216-14.16-1.7925-15.664-1.6021-1.6066-2.8974-1.6546-50.561-1.8738-45.866-0.21094-49.03-0.13347-50.729 1.2424l-1.8122 1.4674 0.0525 62.651c0.0289 34.458-0.25378 63.764-0.62815 65.125l-0.68067 2.4733-13.606 0.22539c-12.978 0.21499-13.679 0.14454-15.194-1.5287-1.5117-1.6698-1.6078-3.7608-2.0002-43.508-0.40445-40.967-0.4431-41.754-2.0494-41.754-1.5243 0-5.0201 4.4084-8.1721 10.305-0.60591 1.1336-2.573 4.6581-4.3713 7.8321-1.7983 3.1741-4.3087 7.626-5.5786 9.8932-1.2699 2.2672-2.5911 4.4932-2.9359 4.9466-0.34485 0.45344-2.0104 3.4214-3.7011 6.5955-1.6908 3.1741-3.9841 7.255-5.0964 9.0688-1.1122 1.8138-5.8482 10.086-10.524 18.384-9.0351 16.031-10.285 17.81-13.795 19.625-2.8374 1.4673-9.508 1.4311-12.262-0.0665zm-150.25-110.29c-1.3063-0.96114-1.3863-7.6095-1.1881-98.726l0.21254-97.696h196.22l0.22825 11.667c0.19169 9.7983 0.0172 11.878-1.0894 12.985-1.1898 1.1898-9.3405 1.3177-83.957 1.3177-70.066 0-82.883 0.17802-84.24 1.1701-1.5635 1.1431-1.6053 3.0999-1.818 84.942l-0.21767 83.771-2.1032 0.79963c-3.153 1.1988-20.345 1.0187-22.043-0.23091zm431.99-0.34352c-0.30229-0.30228-0.55509-37.68-0.56177-83.062-0.01-64.863-0.23517-82.953-1.0548-84.573l-1.0426-2.0611-83.323-0.41222c-69.607-0.34436-83.551-0.60147-84.708-1.5619-1.1986-0.99493-1.3543-2.7149-1.157-12.779l0.22803-11.629h196.22l0.22614 96.459c0.12436 53.052 0.0246 97.294-0.22182 98.314-0.43864 1.8164-0.69321 1.855-12.249 1.855-6.4906 0-12.049-0.24733-12.351-0.54963z" fill="#f8af13" />
    <path d="m28.845 224.49c-0.2205-0.57897-0.30543-44.83-0.18873-98.336l0.21218-97.283h196.22l0.20589 11.542c0.11323 6.3481-0.0963 12.009-0.46571 12.58-0.53127 0.82142-18.094 1.0798-84.063 1.2367-78.802 0.18738-83.472 0.2793-84.863 1.6703-1.3883 1.3883-1.4955 6.2433-1.8843 85.329l-0.41222 83.857-12.178 0.22825c-9.2887 0.1741-12.273-0.0215-12.579-0.82444zm432.99 0.45878c-0.30229-0.30228-0.55509-37.68-0.56177-83.062-0.01-64.863-0.23517-82.953-1.0548-84.573l-1.0426-2.0611-83.323-0.41222c-69.607-0.34436-83.551-0.60147-84.708-1.5619-1.1986-0.99493-1.3543-2.7149-1.157-12.779l0.22803-11.629h196.22l0.22614 96.459c0.12436 53.052 0.0246 97.294-0.22182 98.314-0.43864 1.8164-0.69321 1.855-12.249 1.855-6.4906 0-12.049-0.24733-12.351-0.54963z" fill="#86c13b" />
    <path d="m28.845 224.49c-0.2205-0.57897-0.30543-44.83-0.18873-98.336l0.21218-97.283h196.22l0.20589 11.542c0.11323 6.3481-0.0963 12.009-0.46571 12.58-0.53127 0.82142-18.094 1.0798-84.063 1.2367-78.802 0.18738-83.472 0.2793-84.863 1.6703-1.3883 1.3883-1.4955 6.2433-1.8843 85.329l-0.41222 83.857-12.178 0.22825c-9.2887 0.1741-12.273-0.0215-12.579-0.82444z" fill="#e55b1f" />
  </g>
  <metadata />
</svg>